<svg id="undraw_no_data_qbuo" xmlns="http://www.w3.org/2000/svg" xmlns:xlink="http://www.w3.org/1999/xlink" width="204" height="194" viewBox="0 0 204 194">
  <defs>
    <linearGradient id="linear-gradient" x1="0.509" y1="0.997" x2="0.509" y2="-0.003" gradientUnits="objectBoundingBox">
      <stop offset="0" stop-color="gray" stop-opacity="0.251"/>
      <stop offset="0.54" stop-color="gray" stop-opacity="0.122"/>
      <stop offset="1" stop-color="gray" stop-opacity="0.102"/>
    </linearGradient>
    <linearGradient id="linear-gradient-2" x1="0.813" y1="0.841" x2="0.813" y2="-0.159" xlink:href="#linear-gradient"/>
    <linearGradient id="linear-gradient-3" x1="1.78" y1="0.849" x2="1.78" y2="-0.151" xlink:href="#linear-gradient"/>
    <linearGradient id="linear-gradient-4" x1="0.5" y1="1" x2="0.5" y2="0" xlink:href="#linear-gradient"/>
    <linearGradient id="linear-gradient-6" x1="0.5" y1="0.999" x2="0.5" y2="-0.001" xlink:href="#linear-gradient"/>
  </defs>
  <rect id="Rectangle_11325" data-name="Rectangle 11325" width="108.726" height="150.037" transform="matrix(0.978, -0.21, 0.21, 0.978, 17.192, 33.672)" fill="#e0e0e0"/>
  <g id="Group_22277" data-name="Group 22277" transform="translate(19.522 13.73)" opacity="0.5">
    <rect id="Rectangle_11326" data-name="Rectangle 11326" width="105.052" height="144.961" transform="matrix(0.978, -0.21, 0.21, 0.978, 0, 22.039)" fill="url(#linear-gradient)"/>
  </g>
  <rect id="Rectangle_11327" data-name="Rectangle 11327" width="102.378" height="141.755" transform="matrix(0.978, -0.21, 0.21, 0.978, 21.051, 36.533)" fill="#fafafa"/>
  <rect id="Rectangle_11328" data-name="Rectangle 11328" width="50.773" height="12.299" transform="matrix(0.978, -0.21, 0.21, 0.978, 45.108, 25.107)" fill="url(#linear-gradient-2)"/>
  <path id="Path_133664" data-name="Path 133664" d="M444.069,91.429a7.268,7.268,0,1,0,8.456,5.616A7.183,7.183,0,0,0,444.069,91.429Zm2.405,11.217a4.193,4.193,0,1,1,3.124-4.974,4.144,4.144,0,0,1-3.124,4.974Z" transform="translate(-376.661 -83.393)" fill="url(#linear-gradient-3)"/>
  <path id="Path_133700" data-name="Path 133700" d="M0,0H49.7V11.757H0Z" transform="matrix(0.978, -0.21, 0.21, 0.978, 45.52, 24.479)" fill="#3c984f"/>
  <path id="Path_133665" data-name="Path 133665" d="M444.346,91.428a6.947,6.947,0,1,0,8.25,5.335,6.947,6.947,0,0,0-8.25-5.335Zm2.3,10.72a4.009,4.009,0,1,1,3.079-4.76,4.009,4.009,0,0,1-3.079,4.76Z" transform="translate(-376.938 -83.392)" fill="#3c984f"/>
  <rect id="Rectangle_11330" data-name="Rectangle 11330" width="108.695" height="149.98" transform="translate(64.148 29.078)" fill="#e0e0e0"/>
  <g id="Group_22278" data-name="Group 22278" transform="translate(65.986 31.416)" opacity="0.5">
    <rect id="Rectangle_11331" data-name="Rectangle 11331" width="105.021" height="145.104" fill="url(#linear-gradient-4)"/>
  </g>
  <rect id="Rectangle_11332" data-name="Rectangle 11332" width="102.347" height="141.898" transform="translate(67.321 32.485)" fill="#fff"/>
  <rect id="Rectangle_11333" data-name="Rectangle 11333" width="50.773" height="12.299" transform="translate(93.242 26.533)" fill="url(#linear-gradient-4)"/>
  <path id="Path_133666" data-name="Path 133666" d="M645.418,118a7.27,7.27,0,1,0,7.1,7.268A7.184,7.184,0,0,0,645.418,118Zm0,11.461a4.193,4.193,0,1,1,4.094-4.193,4.144,4.144,0,0,1-4.094,4.174Z" transform="translate(-526.79 -103.472)" fill="url(#linear-gradient-6)"/>
  <path id="Path_133699" data-name="Path 133699" d="M0,0H49.7V11.757H0Z" transform="translate(93.777 26.006)" fill="#3c984f"/>
  <path id="Path_133667" data-name="Path 133667" d="M645.877,118a6.947,6.947,0,1,0,6.947,6.947A6.947,6.947,0,0,0,645.877,118Zm0,10.956a4.013,4.013,0,1,0,0-.012Z" transform="translate(-527.248 -103.472)" fill="#3c984f"/>
  <g id="Group_22279" data-name="Group 22279" transform="translate(1.614 183.116)" opacity="0.5">
    <rect id="Rectangle_11335" data-name="Rectangle 11335" width="0.935" height="5.305" transform="translate(2.184)" fill="#533281"/>
    <rect id="Rectangle_11336" data-name="Rectangle 11336" width="0.935" height="5.305" transform="translate(5.305 2.186) rotate(90)" fill="#533281"/>
  </g>
  <g id="Group_22280" data-name="Group 22280" transform="translate(110.115)" opacity="0.5">
    <rect id="Rectangle_11337" data-name="Rectangle 11337" width="0.935" height="5.305" transform="translate(2.184)" fill="#533281"/>
    <rect id="Rectangle_11338" data-name="Rectangle 11338" width="0.935" height="5.305" transform="translate(5.305 2.184) rotate(90)" fill="#533281"/>
  </g>
  <path id="Path_133668" data-name="Path 133668" d="M949.423,825.742a1.147,1.147,0,0,1-.639-1.385.553.553,0,0,0,.025-.127h0a.575.575,0,0,0-1.032-.381h0a.553.553,0,0,0-.065.112,1.147,1.147,0,0,1-1.385.639.56.56,0,0,0-.127-.025h0a.575.575,0,0,0-.381,1.032h0a.556.556,0,0,0,.112.065,1.146,1.146,0,0,1,.639,1.385.551.551,0,0,0-.025.127h0a.575.575,0,0,0,1.032.38h0a.554.554,0,0,0,.065-.112,1.147,1.147,0,0,1,1.385-.639.55.55,0,0,0,.127.025h0a.575.575,0,0,0,.381-1.032h0A.563.563,0,0,0,949.423,825.742Z" transform="translate(-757.633 -633.794)" fill="#533281" opacity="0.5"/>
  <path id="Path_133669" data-name="Path 133669" d="M315.013,620.682a1.147,1.147,0,0,1-.639-1.385.554.554,0,0,0,.025-.127h0a.575.575,0,0,0-1.032-.381h0a.554.554,0,0,0-.065.112,1.147,1.147,0,0,1-1.385.639.551.551,0,0,0-.127-.025h0a.575.575,0,0,0-.381,1.032h0a.554.554,0,0,0,.112.065,1.147,1.147,0,0,1,.639,1.385.551.551,0,0,0-.025.127h0a.575.575,0,0,0,1.032.381h0a.551.551,0,0,0,.065-.112,1.147,1.147,0,0,1,1.385-.639.542.542,0,0,0,.127.025h0a.575.575,0,0,0,.381-1.032h0A.556.556,0,0,0,315.013,620.682Z" transform="translate(-281.021 -479.682)" fill="#fdd835" opacity="0.5"/>
  <path id="Path_133670" data-name="Path 133670" d="M843.423,121.362a1.146,1.146,0,0,1-.639-1.385.551.551,0,0,0,.025-.127h0a.575.575,0,0,0-1.032-.381h0a.56.56,0,0,0-.065.112,1.147,1.147,0,0,1-1.385.639.551.551,0,0,0-.127-.025h0a.575.575,0,0,0-.381,1.032h0a.553.553,0,0,0,.112.065,1.147,1.147,0,0,1,.639,1.385.551.551,0,0,0-.025.127h0a.575.575,0,0,0,1.032.381h0a.557.557,0,0,0,.065-.112,1.147,1.147,0,0,1,1.385-.639.551.551,0,0,0,.127.025h0a.575.575,0,0,0,.381-1.032h0A.552.552,0,0,0,843.423,121.362Z" transform="translate(-677.999 -104.405)" fill="#fdd835" opacity="0.5"/>
  <circle id="Ellipse_1244" data-name="Ellipse 1244" cx="1.873" cy="1.873" r="1.873" transform="translate(200.254 76.261)" fill="#d14a8f" opacity="0.5"/>
  <circle id="Ellipse_1245" data-name="Ellipse 1245" cx="1.873" cy="1.873" r="1.873" transform="translate(55.516 183.631)" fill="#f55f44" opacity="0.5"/>
  <circle id="Ellipse_1246" data-name="Ellipse 1246" cx="1.873" cy="1.873" r="1.873" transform="translate(181.021 116.699)" fill="#533281" opacity="0.5"/>
  <circle id="Ellipse_1247" data-name="Ellipse 1247" cx="1.873" cy="1.873" r="1.873" transform="translate(19.8 22.091)" fill="#533281" opacity="0.5"/>
  <circle id="Ellipse_1248" data-name="Ellipse 1248" cx="1.873" cy="1.873" r="1.873" transform="translate(0 73.103)" fill="#d14a8f" opacity="0.5"/>
</svg>
