<svg xmlns="http://www.w3.org/2000/svg" width="179" height="170" viewBox="0 0 179 170">
  <g id="undraw_no_data_qbuo" transform="translate(-12 -3)">
    <g id="Group_22281" data-name="Group 22281" transform="translate(12 3)">
      <g id="Group_22279" data-name="Group 22279" transform="translate(7.418 126.443)" opacity="0.5">
        <rect id="Rectangle_11335" data-name="Rectangle 11335" width="0.821" height="4.659" transform="translate(1.918)" fill="#533281"/>
        <rect id="Rectangle_11336" data-name="Rectangle 11336" width="0.821" height="4.659" transform="translate(4.659 1.92) rotate(90)" fill="#533281"/>
      </g>
      <g id="Group_22280" data-name="Group 22280" transform="translate(96.618)" opacity="0.5">
        <rect id="Rectangle_11337" data-name="Rectangle 11337" width="0.821" height="4.659" transform="translate(1.918)" fill="#533281"/>
        <rect id="Rectangle_11338" data-name="Rectangle 11338" width="0.821" height="4.659" transform="translate(4.659 1.918) rotate(90)" fill="#533281"/>
      </g>
      <path id="Path_133668" data-name="Path 133668" d="M948.956,825.484a1.007,1.007,0,0,1-.561-1.216.489.489,0,0,0,.022-.111h0a.5.5,0,0,0-.906-.334h0a.487.487,0,0,0-.057.1,1.007,1.007,0,0,1-1.217.561.49.49,0,0,0-.111-.022h0a.5.5,0,0,0-.334.906h0a.488.488,0,0,0,.1.057,1.007,1.007,0,0,1,.561,1.216.484.484,0,0,0-.022.111h0a.5.5,0,0,0,.906.334h0a.487.487,0,0,0,.057-.1,1.007,1.007,0,0,1,1.216-.561.48.48,0,0,0,.111.022h0a.5.5,0,0,0,.334-.906h0A.494.494,0,0,0,948.956,825.484Z" transform="translate(-780.677 -657.285)" fill="#533281" opacity="0.5"/>
      <path id="Path_133669" data-name="Path 133669" d="M315.391,620.891a1.26,1.26,0,0,1-.7-1.522.608.608,0,0,0,.027-.139h0a.631.631,0,0,0-1.134-.418h0a.612.612,0,0,0-.071.123,1.259,1.259,0,0,1-1.522.7.6.6,0,0,0-.139-.027h0a.631.631,0,0,0-.418,1.134h0a.611.611,0,0,0,.123.071,1.26,1.26,0,0,1,.7,1.522.6.6,0,0,0-.027.139h0a.631.631,0,0,0,1.134.418h0a.608.608,0,0,0,.071-.123,1.26,1.26,0,0,1,1.522-.7.59.59,0,0,0,.139.027h0a.631.631,0,0,0,.418-1.134h0A.615.615,0,0,0,315.391,620.891Z" transform="translate(-278.617 -509.789)" fill="#fdd835" opacity="0.5"/>
      <path id="Path_133670" data-name="Path 133670" d="M842.956,121.1a1.007,1.007,0,0,1-.561-1.217.484.484,0,0,0,.022-.111h0a.5.5,0,0,0-.906-.334h0a.494.494,0,0,0-.057.1,1.007,1.007,0,0,1-1.216.561.484.484,0,0,0-.111-.022h0a.5.5,0,0,0-.334.906h0a.483.483,0,0,0,.1.057,1.007,1.007,0,0,1,.561,1.217.485.485,0,0,0-.022.111h0a.5.5,0,0,0,.906.334h0a.486.486,0,0,0,.057-.1,1.007,1.007,0,0,1,1.217-.561.484.484,0,0,0,.111.022h0a.5.5,0,0,0,.334-.906h0A.486.486,0,0,0,842.956,121.1Z" transform="translate(-697.804 -106.213)" fill="#fdd835" opacity="0.5"/>
      <circle id="Ellipse_1244" data-name="Ellipse 1244" cx="1.645" cy="1.645" r="1.645" transform="translate(175.711 66.824)" fill="#d14a8f" opacity="0.5"/>
      <circle id="Ellipse_1245" data-name="Ellipse 1245" cx="1.645" cy="1.645" r="1.645" transform="translate(48.712 160.895)" fill="#f55f44" opacity="0.5"/>
      <circle id="Ellipse_1246" data-name="Ellipse 1246" cx="1.645" cy="1.645" r="1.645" transform="translate(131.821 82.258)" fill="#533281" opacity="0.5"/>
      <circle id="Ellipse_1247" data-name="Ellipse 1247" cx="1.645" cy="1.645" r="1.645" transform="translate(17.387 19.399)" fill="#533281" opacity="0.5"/>
      <circle id="Ellipse_1248" data-name="Ellipse 1248" cx="1.645" cy="1.645" r="1.645" transform="translate(0 64.057)" fill="#d14a8f" opacity="0.5"/>
    </g>
    <g id="_15-wifi" data-name="15-wifi" transform="translate(30.103 25)">
      <g id="gradient" transform="translate(20.898 10)">
        <circle id="Ellipse_1249" data-name="Ellipse 1249" cx="8.088" cy="8.088" r="8.088" transform="translate(41.912 62.153)" fill="#e15959"/>
        <path id="Path_133689" data-name="Path 133689" d="M120.524,30.574a70.14,70.14,0,0,0-99.252,0,1.278,1.278,0,0,0,0,1.806l6.015,6.02a1.275,1.275,0,0,0,1.8,0,59.088,59.088,0,0,1,83.613,0,1.275,1.275,0,0,0,1.8,0l6.015-6.02a1.278,1.278,0,0,0,0-1.806Z" transform="translate(-20.898 -10)" fill="#e15959"/>
        <path id="Path_133690" data-name="Path 133690" d="M124.331,106a49.394,49.394,0,0,0-35.178,14.588,1.278,1.278,0,0,0,0,1.806l6.013,6.021a1.275,1.275,0,0,0,1.8,0,38.661,38.661,0,0,1,54.72,0,1.275,1.275,0,0,0,1.8,0l6.013-6.021a1.278,1.278,0,0,0,0-1.806A49.394,49.394,0,0,0,124.331,106Z" transform="translate(-74.331 -85.566)" fill="#e15959"/>
        <path id="Path_133691" data-name="Path 133691" d="M177.806,202a29.182,29.182,0,0,0-20.77,8.6,1.277,1.277,0,0,0,0,1.806l6.019,6.021a1.277,1.277,0,0,0,1.806,0,18.305,18.305,0,0,1,25.888,0,1.277,1.277,0,0,0,1.806,0l6.021-6.021a1.277,1.277,0,0,0,0-1.806A29.182,29.182,0,0,0,177.806,202Z" transform="translate(-127.807 -161.132)" fill="#e15959"/>
        <rect id="Rectangle_11339" data-name="Rectangle 11339" width="68.029" height="17.028" rx="8.514" transform="translate(15.986 86.418)" fill="#fdf6f9"/>
        <path id="Path_133692" data-name="Path 133692" d="M149.483,426.137H91.654A7.667,7.667,0,0,1,84,418.474v-6.811A7.667,7.667,0,0,1,91.654,404h57.829a7.667,7.667,0,0,1,7.654,7.663v6.811A7.667,7.667,0,0,1,149.483,426.137ZM91.654,409.108a2.555,2.555,0,0,0-2.551,2.554v6.811a2.556,2.556,0,0,0,2.551,2.554h57.829a2.556,2.556,0,0,0,2.551-2.554v-6.811a2.555,2.555,0,0,0-2.551-2.554Z" transform="translate(-70.569 -320.137)" fill="#e15959"/>
        <g id="Group_22284" data-name="Group 22284" transform="translate(26.457 92.377)">
          <path id="Path_133694" data-name="Path 133694" d="M2.554,0A2.554,2.554,0,1,1,0,2.554,2.554,2.554,0,0,1,2.554,0Z" transform="translate(20.989)" fill="#e15959"/>
          <path id="Path_133695" data-name="Path 133695" d="M2.554,0A2.554,2.554,0,1,1,0,2.554,2.554,2.554,0,0,1,2.554,0Z" transform="translate(31.484)" fill="#e15959"/>
          <path id="Path_133696" data-name="Path 133696" d="M2.554,0A2.554,2.554,0,1,1,0,2.554,2.554,2.554,0,0,1,2.554,0Z" transform="translate(41.978)" fill="#e15959"/>
          <path id="Path_133693" data-name="Path 133693" d="M2.554,0A2.554,2.554,0,1,1,0,2.554,2.554,2.554,0,0,1,2.554,0Z" transform="translate(10.495)" fill="#e15959"/>
          <circle id="Ellipse_1254" data-name="Ellipse 1254" cx="2.554" cy="2.554" r="2.554" fill="#e15959"/>
        </g>
      </g>
    </g>
  </g>
</svg>
