<svg xmlns="http://www.w3.org/2000/svg" width="25.541" height="22.097" viewBox="0 0 25.541 22.097">
  <g id="refresh_1_" data-name="refresh (1)" transform="translate(0.301 -33.017)">
    <path id="Path_1983" data-name="Path 1983" d="M14.192,33.267A10.808,10.808,0,0,0,3.4,44.065V44.1L1.262,40.882a.688.688,0,1,0-1.148.76l3.1,4.667a.69.69,0,0,0,.49.3.5.5,0,0,0,.087.005.675.675,0,0,0,.459-.179l4.31-3.882a.69.69,0,0,0-.923-1.025L4.776,44.116v-.051a9.43,9.43,0,1,1,2.765,6.662.689.689,0,0,0-.974.974,10.8,10.8,0,1,0,7.626-18.434Z" transform="translate(0)" fill="#fff" stroke="#fff" stroke-width="0.5"/>
  </g>
</svg>
