<svg id="undraw_no_data_qbuo" xmlns="http://www.w3.org/2000/svg" width="204" height="194" viewBox="0 0 204 194">
  <g id="Group_22279" data-name="Group 22279" transform="translate(1.614 183.116)" opacity="0.5">
    <rect id="Rectangle_11335" data-name="Rectangle 11335" width="0.935" height="5.305" transform="translate(2.184)" fill="#533281"/>
    <rect id="Rectangle_11336" data-name="Rectangle 11336" width="0.935" height="5.305" transform="translate(5.305 2.186) rotate(90)" fill="#533281"/>
  </g>
  <g id="Group_22280" data-name="Group 22280" transform="translate(110.115)" opacity="0.5">
    <rect id="Rectangle_11337" data-name="Rectangle 11337" width="0.935" height="5.305" transform="translate(2.184)" fill="#533281"/>
    <rect id="Rectangle_11338" data-name="Rectangle 11338" width="0.935" height="5.305" transform="translate(5.305 2.184) rotate(90)" fill="#533281"/>
  </g>
  <path id="Path_133668" data-name="Path 133668" d="M949.423,825.742a1.147,1.147,0,0,1-.639-1.385.553.553,0,0,0,.025-.127h0a.575.575,0,0,0-1.032-.381h0a.553.553,0,0,0-.065.112,1.147,1.147,0,0,1-1.385.639.56.56,0,0,0-.127-.025h0a.575.575,0,0,0-.381,1.032h0a.556.556,0,0,0,.112.065,1.146,1.146,0,0,1,.639,1.385.551.551,0,0,0-.025.127h0a.575.575,0,0,0,1.032.38h0a.554.554,0,0,0,.065-.112,1.147,1.147,0,0,1,1.385-.639.55.55,0,0,0,.127.025h0a.575.575,0,0,0,.381-1.032h0A.563.563,0,0,0,949.423,825.742Z" transform="translate(-757.633 -633.794)" fill="#533281" opacity="0.5"/>
  <path id="Path_133669" data-name="Path 133669" d="M315.013,620.682a1.147,1.147,0,0,1-.639-1.385.554.554,0,0,0,.025-.127h0a.575.575,0,0,0-1.032-.381h0a.554.554,0,0,0-.065.112,1.147,1.147,0,0,1-1.385.639.551.551,0,0,0-.127-.025h0a.575.575,0,0,0-.381,1.032h0a.554.554,0,0,0,.112.065,1.147,1.147,0,0,1,.639,1.385.551.551,0,0,0-.025.127h0a.575.575,0,0,0,1.032.381h0a.551.551,0,0,0,.065-.112,1.147,1.147,0,0,1,1.385-.639.542.542,0,0,0,.127.025h0a.575.575,0,0,0,.381-1.032h0A.556.556,0,0,0,315.013,620.682Z" transform="translate(-281.021 -479.682)" fill="#fdd835" opacity="0.5"/>
  <path id="Path_133670" data-name="Path 133670" d="M843.423,121.362a1.146,1.146,0,0,1-.639-1.385.551.551,0,0,0,.025-.127h0a.575.575,0,0,0-1.032-.381h0a.56.56,0,0,0-.065.112,1.147,1.147,0,0,1-1.385.639.551.551,0,0,0-.127-.025h0a.575.575,0,0,0-.381,1.032h0a.553.553,0,0,0,.112.065,1.147,1.147,0,0,1,.639,1.385.551.551,0,0,0-.025.127h0a.575.575,0,0,0,1.032.381h0a.557.557,0,0,0,.065-.112,1.147,1.147,0,0,1,1.385-.639.551.551,0,0,0,.127.025h0a.575.575,0,0,0,.381-1.032h0A.552.552,0,0,0,843.423,121.362Z" transform="translate(-677.999 -104.405)" fill="#fdd835" opacity="0.5"/>
  <circle id="Ellipse_1244" data-name="Ellipse 1244" cx="1.873" cy="1.873" r="1.873" transform="translate(200.254 76.261)" fill="#d14a8f" opacity="0.5"/>
  <circle id="Ellipse_1245" data-name="Ellipse 1245" cx="1.873" cy="1.873" r="1.873" transform="translate(55.516 183.631)" fill="#f55f44" opacity="0.5"/>
  <circle id="Ellipse_1246" data-name="Ellipse 1246" cx="1.873" cy="1.873" r="1.873" transform="translate(181.021 116.699)" fill="#533281" opacity="0.5"/>
  <circle id="Ellipse_1247" data-name="Ellipse 1247" cx="1.873" cy="1.873" r="1.873" transform="translate(19.8 22.091)" fill="#533281" opacity="0.5"/>
  <circle id="Ellipse_1248" data-name="Ellipse 1248" cx="1.873" cy="1.873" r="1.873" transform="translate(0 73.103)" fill="#d14a8f" opacity="0.5"/>
  <g id="signup" transform="translate(37.918 42)">
    <path id="Path_133702" data-name="Path 133702" d="M63,3a60,60,0,1,0,60,60A60.068,60.068,0,0,0,63,3Zm0,114.894A54.894,54.894,0,1,1,117.894,63,54.956,54.956,0,0,1,63,117.894ZM48.9,74.7c-4.282,0-15.066,2.581-16.357,9.054l-.864,5.191a2.552,2.552,0,0,0,2.1,2.937,2.5,2.5,0,0,0,.421.034A2.553,2.553,0,0,0,36.72,89.78l.849-5.11c.46-2.3,7.15-4.866,11.336-4.866a2.553,2.553,0,1,0,0-5.105Zm37.1,8.971c-1.22-6.1-10.474-8.936-16.346-8.936a2.553,2.553,0,1,0,0,5.106c5.04,0,10.869,2.483,11.323,4.75l.864,5.189a2.553,2.553,0,0,0,2.516,2.134,2.628,2.628,0,0,0,.421-.034,2.554,2.554,0,0,0,2.1-2.937ZM69.927,71.085l.134-.2a58.7,58.7,0,0,0,4.129-8.837,4.29,4.29,0,0,0,2.353-3.825V54.762a4.277,4.277,0,0,0-1.73-3.437v-.889c0-8.64-5.8-13.8-15.527-13.8S43.758,41.8,43.758,50.437v.913a4.311,4.311,0,0,0-1.731,3.414v3.458a4.291,4.291,0,0,0,2.354,3.825,58.539,58.539,0,0,0,4.13,8.838l.133.2c1.211,1.838,3.47,5.262,10.643,5.262S68.714,72.923,69.927,71.085Zm-4.263-2.812c-.918,1.39-1.957,2.966-6.379,2.966s-5.463-1.575-6.38-2.967l-.146-.221A64.1,64.1,0,0,1,48.7,59.055a2.558,2.558,0,0,0-1.569-1.52V55.45a2.555,2.555,0,0,0,1.731-2.419v-2.6c0-5.768,3.506-8.692,10.421-8.692s10.421,2.925,10.421,8.692v2.6a2.554,2.554,0,0,0,1.73,2.418v2.086a2.55,2.55,0,0,0-1.568,1.52,64.547,64.547,0,0,1-4.057,8.994ZM98.549,39.7h-8.17v-8.17a2.553,2.553,0,0,0-5.106,0V39.7H77.1a2.553,2.553,0,1,0,0,5.106h8.169v8.17a2.553,2.553,0,0,0,5.106,0v-8.17h8.17a2.553,2.553,0,1,0,0-5.106Z" transform="translate(0 0)" fill="#3c984f"/>
  </g>
</svg>
