<svg id="icon" xmlns="http://www.w3.org/2000/svg" width="20" height="15" viewBox="0 0 20 15">
  <path id="Subtraction_1" data-name="Subtraction 1" d="M3,6A3,3,0,1,1,6,3,3,3,0,0,1,3,6ZM1.714,2.678a.214.214,0,0,0-.214.214v.214a.214.214,0,0,0,.214.214h.964v.965a.214.214,0,0,0,.214.214h.215a.214.214,0,0,0,.214-.214V3.321h.964A.214.214,0,0,0,4.5,3.107V2.893a.214.214,0,0,0-.214-.214H3.322V1.714A.214.214,0,0,0,3.108,1.5H2.893a.214.214,0,0,0-.214.214v.964Z" transform="translate(7 5.5)" fill="#1d1d1b"/>
  <g id="icon-camera">
    <path id="Path_2372" data-name="Path 2372" d="M22.911,10.375H20.073a.845.845,0,0,1-.625-.281c-1.479-1.656-2.036-2.219-2.641-2.219H12.354c-.609,0-1.208.563-2.693,2.224a.829.829,0,0,1-.62.276H8.828V9.958a.418.418,0,0,0-.417-.417H7.057a.418.418,0,0,0-.417.417v.417H6.25a1.689,1.689,0,0,0-1.75,1.6v9.167a1.8,1.8,0,0,0,1.745,1.734H22.911A1.669,1.669,0,0,0,24.5,21.141V11.974A1.552,1.552,0,0,0,22.911,10.375Zm-8.2,10.437a4.453,4.453,0,1,1,4.24-4.24A4.457,4.457,0,0,1,14.708,20.812ZM19.5,13.4a.677.677,0,1,1,.677-.677A.676.676,0,0,1,19.5,13.4Z" transform="translate(-4.5 -7.875)" fill="#1d1d1b"/>
  </g>
</svg>
